<mxfile host="Electron" modified="2024-01-31T19:22:30.819Z" agent="Mozilla/5.0 (Windows NT 10.0; Win64; x64) AppleWebKit/537.36 (KHTML, like Gecko) draw.io/21.5.1 Chrome/112.0.5615.204 Electron/24.6.0 Safari/537.36" etag="qflwgHX9GyD23_fKCfAb" version="21.5.1" type="device">
  <diagram name="Page-1" id="b5b7bab2-c9e2-2cf4-8b2a-24fd1a2a6d21">
    <mxGraphModel dx="2763" dy="1780" grid="0" gridSize="10" guides="1" tooltips="1" connect="1" arrows="1" fold="1" page="0" pageScale="1" pageWidth="827" pageHeight="1169" background="none" math="0" shadow="0">
      <root>
        <mxCell id="0" />
        <mxCell id="1" parent="0" />
        <mxCell id="kJ2lCD65fJCAoveF82Tu-1" value="" style="rounded=0;whiteSpace=wrap;html=1;strokeColor=none;fillColor=#FFFFFF;movable=1;resizable=1;rotatable=1;deletable=1;editable=1;locked=0;connectable=1;" parent="1" vertex="1">
          <mxGeometry x="-48" y="-94" width="1510" height="1076" as="geometry" />
        </mxCell>
        <mxCell id="RFTkVhOzcL3C026ARIEq-14" value="" style="rounded=0;whiteSpace=wrap;html=1;imageWidth=140;fontColor=#0D0D0D;strokeColor=#0D0D0D;fillColor=#FFFFFF;movable=0;resizable=0;rotatable=0;deletable=0;editable=0;locked=1;connectable=0;" parent="1" vertex="1">
          <mxGeometry x="40" y="30" width="1236" height="200" as="geometry" />
        </mxCell>
        <mxCell id="RFTkVhOzcL3C026ARIEq-8" value="" style="rounded=0;whiteSpace=wrap;html=1;imageWidth=140;fontColor=#0D0D0D;strokeColor=#0D0D0D;fillColor=#FFFFFF;movable=0;resizable=0;rotatable=0;deletable=0;editable=0;locked=1;connectable=0;" parent="1" vertex="1">
          <mxGeometry x="40" y="320" width="1234.25" height="202" as="geometry" />
        </mxCell>
        <mxCell id="RFTkVhOzcL3C026ARIEq-9" value="" style="rounded=0;whiteSpace=wrap;html=1;imageWidth=140;fontColor=#0D0D0D;strokeColor=#0D0D0D;fillColor=#FFFFFF;movable=0;resizable=0;rotatable=0;deletable=0;editable=0;locked=1;connectable=0;" parent="1" vertex="1">
          <mxGeometry x="41" y="621" width="1234" height="202" as="geometry" />
        </mxCell>
        <mxCell id="4hjQzBS3B8wGqRVhp3q0-7" value="«Component»&lt;br&gt;&lt;b&gt;OfferDAO&lt;/b&gt;" style="html=1;dropTarget=0;whiteSpace=wrap;fontColor=#0D0D0D;strokeColor=#0D0D0D;fillColor=#FFFFFF;fontFamily=Verdana;strokeWidth=2;" parent="1" vertex="1">
          <mxGeometry x="172" y="687" width="180" height="90" as="geometry" />
        </mxCell>
        <mxCell id="4hjQzBS3B8wGqRVhp3q0-8" value="" style="shape=module;jettyWidth=8;jettyHeight=4;fontColor=#0D0D0D;strokeColor=#0D0D0D;fillColor=#FFFFFF;fontFamily=Verdana;strokeWidth=2;" parent="4hjQzBS3B8wGqRVhp3q0-7" vertex="1">
          <mxGeometry x="1" width="20" height="20" relative="1" as="geometry">
            <mxPoint x="-27" y="7" as="offset" />
          </mxGeometry>
        </mxCell>
        <mxCell id="4hjQzBS3B8wGqRVhp3q0-10" value="«Component»&lt;br&gt;&lt;b&gt;DeveloperDAO&lt;/b&gt;" style="html=1;dropTarget=0;whiteSpace=wrap;fontColor=#0D0D0D;strokeColor=#0D0D0D;fillColor=#FFFFFF;fontFamily=Verdana;strokeWidth=2;" parent="1" vertex="1">
          <mxGeometry x="565" y="687" width="180" height="90" as="geometry" />
        </mxCell>
        <mxCell id="4hjQzBS3B8wGqRVhp3q0-11" value="" style="shape=module;jettyWidth=8;jettyHeight=4;fontColor=#0D0D0D;strokeColor=#0D0D0D;fillColor=#FFFFFF;fontFamily=Verdana;strokeWidth=2;" parent="4hjQzBS3B8wGqRVhp3q0-10" vertex="1">
          <mxGeometry x="1" width="20" height="20" relative="1" as="geometry">
            <mxPoint x="-27" y="7" as="offset" />
          </mxGeometry>
        </mxCell>
        <mxCell id="4hjQzBS3B8wGqRVhp3q0-22" value="«component»&lt;br&gt;&lt;b&gt;LoginGUI&lt;/b&gt;" style="html=1;dropTarget=0;whiteSpace=wrap;fontColor=#0D0D0D;strokeColor=#0D0D0D;fillColor=#FFFFFF;fontFamily=Verdana;strokeWidth=2;" parent="1" vertex="1">
          <mxGeometry x="868" y="89" width="180" height="90" as="geometry" />
        </mxCell>
        <mxCell id="4hjQzBS3B8wGqRVhp3q0-23" value="" style="shape=module;jettyWidth=8;jettyHeight=4;fontColor=#0D0D0D;strokeColor=#0D0D0D;fillColor=#FFFFFF;fontFamily=Verdana;strokeWidth=2;" parent="4hjQzBS3B8wGqRVhp3q0-22" vertex="1">
          <mxGeometry x="1" width="20" height="20" relative="1" as="geometry">
            <mxPoint x="-27" y="7" as="offset" />
          </mxGeometry>
        </mxCell>
        <mxCell id="O_cc4rlv1EW-NWDAQmC--3" value="«component»&lt;br&gt;&lt;b&gt;SearchControl&lt;/b&gt;" style="html=1;dropTarget=0;whiteSpace=wrap;fontColor=#0D0D0D;strokeColor=#0D0D0D;fillColor=#FFFFFF;fontFamily=Verdana;strokeWidth=2;" parent="1" vertex="1">
          <mxGeometry x="270" y="379" width="180" height="90" as="geometry" />
        </mxCell>
        <mxCell id="O_cc4rlv1EW-NWDAQmC--4" value="" style="shape=module;jettyWidth=8;jettyHeight=4;fontColor=#0D0D0D;strokeColor=#0D0D0D;fillColor=#FFFFFF;fontFamily=Verdana;strokeWidth=2;" parent="O_cc4rlv1EW-NWDAQmC--3" vertex="1">
          <mxGeometry x="1" width="20" height="20" relative="1" as="geometry">
            <mxPoint x="-27" y="7" as="offset" />
          </mxGeometry>
        </mxCell>
        <mxCell id="vZ2CN4wMhGTW3bv5hmPA-11" value="«Component»&lt;br&gt;&lt;b&gt;EmployerDAO&lt;/b&gt;" style="html=1;dropTarget=0;whiteSpace=wrap;fontColor=#0D0D0D;strokeColor=#0D0D0D;fillColor=#FFFFFF;fontFamily=Verdana;strokeWidth=2;" parent="1" vertex="1">
          <mxGeometry x="767" y="687" width="180" height="90" as="geometry" />
        </mxCell>
        <mxCell id="vZ2CN4wMhGTW3bv5hmPA-12" value="" style="shape=module;jettyWidth=8;jettyHeight=4;fontColor=#0D0D0D;strokeColor=#0D0D0D;fillColor=#FFFFFF;fontFamily=Verdana;strokeWidth=2;" parent="vZ2CN4wMhGTW3bv5hmPA-11" vertex="1">
          <mxGeometry x="1" width="20" height="20" relative="1" as="geometry">
            <mxPoint x="-27" y="7" as="offset" />
          </mxGeometry>
        </mxCell>
        <mxCell id="vZ2CN4wMhGTW3bv5hmPA-50" value="" style="rounded=0;orthogonalLoop=1;jettySize=auto;html=1;endArrow=halfCircle;endFill=0;endSize=6;strokeWidth=2;sketch=0;exitX=0.5;exitY=1;exitDx=0;exitDy=0;fontColor=#0D0D0D;strokeColor=#FFFFFF;fontFamily=Verdana;" parent="1" edge="1">
          <mxGeometry relative="1" as="geometry">
            <mxPoint x="925.0000000000005" y="235" as="sourcePoint" />
            <mxPoint x="925.0000000000005" y="235" as="targetPoint" />
          </mxGeometry>
        </mxCell>
        <mxCell id="vZ2CN4wMhGTW3bv5hmPA-62" value="" style="ellipse;whiteSpace=wrap;html=1;align=center;aspect=fixed;fillColor=none;strokeColor=none;resizable=0;perimeter=centerPerimeter;rotatable=0;allowArrows=0;points=[];outlineConnect=1;strokeWidth=2;" parent="1" vertex="1">
          <mxGeometry x="1430" y="310" width="10" height="10" as="geometry" />
        </mxCell>
        <mxCell id="RFTkVhOzcL3C026ARIEq-11" value="&lt;font face=&quot;Verdana&quot; style=&quot;font-size: 16px;&quot;&gt;Data Access Layer&lt;/font&gt;" style="html=1;whiteSpace=wrap;rotation=-90;fontColor=#FFFFFF;strokeColor=#0D0D0D;fillColor=#1F4E79;movable=1;resizable=1;rotatable=1;deletable=1;editable=1;locked=0;connectable=1;strokeWidth=2;" parent="1" vertex="1">
          <mxGeometry x="-90.31" y="692.56" width="203.13" height="58.5" as="geometry" />
        </mxCell>
        <mxCell id="RFTkVhOzcL3C026ARIEq-12" value="&lt;font face=&quot;Verdana&quot; style=&quot;font-size: 16px;&quot;&gt;Business Logic Layer&lt;/font&gt;" style="html=1;whiteSpace=wrap;rotation=-90;fontColor=#FFFFFF;strokeColor=#0D0D0D;fillColor=#1F4E79;movable=1;resizable=1;rotatable=1;deletable=1;editable=1;locked=0;connectable=1;strokeWidth=2;" parent="1" vertex="1">
          <mxGeometry x="-90.63" y="391.62" width="202.25" height="57.5" as="geometry" />
        </mxCell>
        <mxCell id="RFTkVhOzcL3C026ARIEq-13" value="&lt;font face=&quot;Verdana&quot; style=&quot;font-size: 16px;&quot; color=&quot;#ffffff&quot;&gt;Presentation Layer&lt;/font&gt;" style="html=1;whiteSpace=wrap;rotation=-90;fontColor=#0D0D0D;strokeColor=#0D0D0D;fillColor=#1f4e79;movable=1;resizable=1;rotatable=1;deletable=1;editable=1;locked=0;connectable=1;strokeWidth=2;" parent="1" vertex="1">
          <mxGeometry x="-89.35" y="100.7" width="201.18" height="56.5" as="geometry" />
        </mxCell>
        <mxCell id="RFTkVhOzcL3C026ARIEq-22" value="" style="ellipse;whiteSpace=wrap;html=1;align=center;aspect=fixed;fillColor=none;strokeColor=#FFFFFF;resizable=0;perimeter=centerPerimeter;rotatable=0;allowArrows=0;points=[];outlineConnect=1;fontColor=#0D0D0D;fontFamily=Verdana;strokeWidth=2;" parent="1" vertex="1">
          <mxGeometry x="635.75" y="468" width="10" height="10" as="geometry" />
        </mxCell>
        <mxCell id="kJ2lCD65fJCAoveF82Tu-12" value="«component»&lt;br&gt;&lt;b&gt;OfferControl&lt;/b&gt;" style="html=1;dropTarget=0;whiteSpace=wrap;fontColor=#0D0D0D;strokeColor=#0D0D0D;fillColor=#FFFFFF;fontFamily=Verdana;strokeWidth=2;" parent="1" vertex="1">
          <mxGeometry x="71" y="379" width="180" height="90" as="geometry" />
        </mxCell>
        <mxCell id="kJ2lCD65fJCAoveF82Tu-13" value="" style="shape=module;jettyWidth=8;jettyHeight=4;fontColor=#0D0D0D;strokeColor=#0D0D0D;fillColor=#FFFFFF;fontFamily=Verdana;strokeWidth=2;" parent="kJ2lCD65fJCAoveF82Tu-12" vertex="1">
          <mxGeometry x="1" width="20" height="20" relative="1" as="geometry">
            <mxPoint x="-27" y="7" as="offset" />
          </mxGeometry>
        </mxCell>
        <mxCell id="kJ2lCD65fJCAoveF82Tu-14" value="«component»&lt;br&gt;&lt;b&gt;OfferGUI&lt;/b&gt;" style="html=1;dropTarget=0;whiteSpace=wrap;fontColor=#0D0D0D;strokeColor=#0D0D0D;fillColor=#FFFFFF;fontFamily=Verdana;strokeWidth=2;" parent="1" vertex="1">
          <mxGeometry x="71" y="89" width="180" height="90" as="geometry" />
        </mxCell>
        <mxCell id="kJ2lCD65fJCAoveF82Tu-15" value="" style="shape=module;jettyWidth=8;jettyHeight=4;fontColor=#0D0D0D;strokeColor=#0D0D0D;fillColor=#FFFFFF;fontFamily=Verdana;strokeWidth=2;" parent="kJ2lCD65fJCAoveF82Tu-14" vertex="1">
          <mxGeometry x="1" width="20" height="20" relative="1" as="geometry">
            <mxPoint x="-27" y="7" as="offset" />
          </mxGeometry>
        </mxCell>
        <mxCell id="kJ2lCD65fJCAoveF82Tu-16" value="«component»&lt;br&gt;&lt;b&gt;SearchGUI&lt;br&gt;&lt;/b&gt;" style="html=1;dropTarget=0;whiteSpace=wrap;fontColor=#0D0D0D;strokeColor=#0D0D0D;fillColor=#FFFFFF;fontFamily=Verdana;strokeWidth=2;" parent="1" vertex="1">
          <mxGeometry x="270" y="89" width="180" height="90" as="geometry" />
        </mxCell>
        <mxCell id="kJ2lCD65fJCAoveF82Tu-17" value="" style="shape=module;jettyWidth=8;jettyHeight=4;fontColor=#0D0D0D;strokeColor=#0D0D0D;fillColor=#FFFFFF;fontFamily=Verdana;strokeWidth=2;" parent="kJ2lCD65fJCAoveF82Tu-16" vertex="1">
          <mxGeometry x="1" width="20" height="20" relative="1" as="geometry">
            <mxPoint x="-27" y="7" as="offset" />
          </mxGeometry>
        </mxCell>
        <mxCell id="kJ2lCD65fJCAoveF82Tu-18" value="«component»&lt;br&gt;&lt;b&gt;DeveloperGUI&lt;/b&gt;" style="html=1;dropTarget=0;whiteSpace=wrap;fontColor=#0D0D0D;strokeColor=#0D0D0D;fillColor=#FFFFFF;fontFamily=Verdana;strokeWidth=2;" parent="1" vertex="1">
          <mxGeometry x="468.5" y="89" width="180" height="90" as="geometry" />
        </mxCell>
        <mxCell id="kJ2lCD65fJCAoveF82Tu-19" value="" style="shape=module;jettyWidth=8;jettyHeight=4;fontColor=#0D0D0D;strokeColor=#0D0D0D;fillColor=#FFFFFF;fontFamily=Verdana;strokeWidth=2;" parent="kJ2lCD65fJCAoveF82Tu-18" vertex="1">
          <mxGeometry x="1" width="20" height="20" relative="1" as="geometry">
            <mxPoint x="-27" y="7" as="offset" />
          </mxGeometry>
        </mxCell>
        <mxCell id="kJ2lCD65fJCAoveF82Tu-22" value="«component»&lt;br&gt;&lt;b&gt;SignUpGUI&lt;/b&gt;" style="html=1;dropTarget=0;whiteSpace=wrap;fontColor=#0D0D0D;strokeColor=#0D0D0D;fillColor=#FFFFFF;fontFamily=Verdana;strokeWidth=2;" parent="1" vertex="1">
          <mxGeometry x="1064" y="89" width="180" height="90" as="geometry" />
        </mxCell>
        <mxCell id="kJ2lCD65fJCAoveF82Tu-23" value="" style="shape=module;jettyWidth=8;jettyHeight=4;fontColor=#0D0D0D;strokeColor=#0D0D0D;fillColor=#FFFFFF;fontFamily=Verdana;strokeWidth=2;" parent="kJ2lCD65fJCAoveF82Tu-22" vertex="1">
          <mxGeometry x="1" width="20" height="20" relative="1" as="geometry">
            <mxPoint x="-27" y="7" as="offset" />
          </mxGeometry>
        </mxCell>
        <mxCell id="kJ2lCD65fJCAoveF82Tu-24" value="«component»&lt;br&gt;&lt;b&gt;AuthenticationControl&lt;/b&gt;" style="html=1;dropTarget=0;whiteSpace=wrap;fontColor=#0D0D0D;strokeColor=#0D0D0D;fillColor=#FFFFFF;fontFamily=Verdana;strokeWidth=2;" parent="1" vertex="1">
          <mxGeometry x="969" y="378" width="180" height="90" as="geometry" />
        </mxCell>
        <mxCell id="kJ2lCD65fJCAoveF82Tu-25" value="" style="shape=module;jettyWidth=8;jettyHeight=4;fontColor=#0D0D0D;strokeColor=#0D0D0D;fillColor=#FFFFFF;fontFamily=Verdana;strokeWidth=2;" parent="kJ2lCD65fJCAoveF82Tu-24" vertex="1">
          <mxGeometry x="1" width="20" height="20" relative="1" as="geometry">
            <mxPoint x="-27" y="7" as="offset" />
          </mxGeometry>
        </mxCell>
        <mxCell id="kJ2lCD65fJCAoveF82Tu-26" value="«component»&lt;br&gt;&lt;b&gt;UserControl&lt;/b&gt;" style="html=1;dropTarget=0;whiteSpace=wrap;fontColor=#0D0D0D;strokeColor=#0D0D0D;fillColor=#FFFFFF;fontFamily=Verdana;strokeWidth=2;" parent="1" vertex="1">
          <mxGeometry x="568" y="379" width="180" height="90" as="geometry" />
        </mxCell>
        <mxCell id="kJ2lCD65fJCAoveF82Tu-27" value="" style="shape=module;jettyWidth=8;jettyHeight=4;fontColor=#0D0D0D;strokeColor=#0D0D0D;fillColor=#FFFFFF;fontFamily=Verdana;strokeWidth=2;" parent="kJ2lCD65fJCAoveF82Tu-26" vertex="1">
          <mxGeometry x="1" width="20" height="20" relative="1" as="geometry">
            <mxPoint x="-27" y="7" as="offset" />
          </mxGeometry>
        </mxCell>
        <mxCell id="kJ2lCD65fJCAoveF82Tu-20" value="«component»&lt;br&gt;&lt;b&gt;EmployerGUI&lt;/b&gt;" style="html=1;dropTarget=0;whiteSpace=wrap;fontColor=#0D0D0D;strokeColor=#0D0D0D;fillColor=#FFFFFF;fontFamily=Verdana;strokeWidth=2;" parent="1" vertex="1">
          <mxGeometry x="667.5" y="89" width="180" height="90" as="geometry" />
        </mxCell>
        <mxCell id="kJ2lCD65fJCAoveF82Tu-21" value="" style="shape=module;jettyWidth=8;jettyHeight=4;fontColor=#0D0D0D;strokeColor=#0D0D0D;fillColor=#FFFFFF;fontFamily=Verdana;strokeWidth=2;" parent="kJ2lCD65fJCAoveF82Tu-20" vertex="1">
          <mxGeometry x="1" width="20" height="20" relative="1" as="geometry">
            <mxPoint x="-27" y="7" as="offset" />
          </mxGeometry>
        </mxCell>
        <mxCell id="kJ2lCD65fJCAoveF82Tu-37" value="" style="rounded=0;orthogonalLoop=1;jettySize=auto;html=1;endArrow=halfCircle;endFill=0;endSize=6;strokeWidth=2;sketch=0;fontSize=12;curved=1;exitX=0.5;exitY=1;exitDx=0;exitDy=0;strokeColor=#0D0D0D;fontFamily=Verdana;" parent="1" source="kJ2lCD65fJCAoveF82Tu-14" edge="1">
          <mxGeometry relative="1" as="geometry">
            <mxPoint x="167" y="261" as="sourcePoint" />
            <mxPoint x="161" y="275" as="targetPoint" />
          </mxGeometry>
        </mxCell>
        <mxCell id="kJ2lCD65fJCAoveF82Tu-38" value="" style="ellipse;whiteSpace=wrap;html=1;align=center;aspect=fixed;fillColor=none;strokeColor=none;resizable=0;perimeter=centerPerimeter;rotatable=0;allowArrows=0;points=[];outlineConnect=1;fontFamily=Verdana;strokeWidth=2;" parent="1" vertex="1">
          <mxGeometry x="446" y="500" width="10" height="10" as="geometry" />
        </mxCell>
        <mxCell id="kJ2lCD65fJCAoveF82Tu-40" value="" style="rounded=0;orthogonalLoop=1;jettySize=auto;html=1;endArrow=oval;endFill=0;sketch=0;sourcePerimeterSpacing=0;targetPerimeterSpacing=0;endSize=10;exitX=0.5;exitY=0;exitDx=0;exitDy=0;strokeColor=#0D0D0D;strokeWidth=2;" parent="1" source="kJ2lCD65fJCAoveF82Tu-12" edge="1">
          <mxGeometry relative="1" as="geometry">
            <mxPoint x="220" y="356" as="sourcePoint" />
            <mxPoint x="161" y="277" as="targetPoint" />
          </mxGeometry>
        </mxCell>
        <mxCell id="kJ2lCD65fJCAoveF82Tu-41" value="" style="ellipse;whiteSpace=wrap;html=1;align=center;aspect=fixed;fillColor=none;strokeColor=none;resizable=0;perimeter=centerPerimeter;rotatable=0;allowArrows=0;points=[];outlineConnect=1;fontFamily=Verdana;strokeWidth=2;" parent="1" vertex="1">
          <mxGeometry x="271" y="354" width="10" height="10" as="geometry" />
        </mxCell>
        <mxCell id="kJ2lCD65fJCAoveF82Tu-45" value="" style="rounded=0;orthogonalLoop=1;jettySize=auto;html=1;endArrow=oval;endFill=0;sketch=0;sourcePerimeterSpacing=0;targetPerimeterSpacing=0;endSize=10;exitX=0.5;exitY=0;exitDx=0;exitDy=0;strokeColor=#0D0D0D;strokeWidth=2;" parent="1" source="O_cc4rlv1EW-NWDAQmC--3" edge="1">
          <mxGeometry relative="1" as="geometry">
            <mxPoint x="356" y="376" as="sourcePoint" />
            <mxPoint x="360" y="276" as="targetPoint" />
          </mxGeometry>
        </mxCell>
        <mxCell id="kJ2lCD65fJCAoveF82Tu-46" value="" style="rounded=0;orthogonalLoop=1;jettySize=auto;html=1;endArrow=halfCircle;endFill=0;endSize=6;strokeWidth=2;sketch=0;fontSize=12;curved=1;exitX=0.5;exitY=1;exitDx=0;exitDy=0;strokeColor=#0D0D0D;fontFamily=Verdana;" parent="1" source="kJ2lCD65fJCAoveF82Tu-16" edge="1">
          <mxGeometry relative="1" as="geometry">
            <mxPoint x="171" y="189" as="sourcePoint" />
            <mxPoint x="360" y="275" as="targetPoint" />
          </mxGeometry>
        </mxCell>
        <mxCell id="kJ2lCD65fJCAoveF82Tu-47" value="" style="rounded=0;orthogonalLoop=1;jettySize=auto;html=1;endArrow=halfCircle;endFill=0;endSize=6;strokeWidth=2;sketch=0;fontSize=12;curved=1;strokeColor=#0D0D0D;exitX=0.5;exitY=1;exitDx=0;exitDy=0;fontFamily=Verdana;" parent="1" source="kJ2lCD65fJCAoveF82Tu-18" edge="1">
          <mxGeometry relative="1" as="geometry">
            <mxPoint x="558" y="181" as="sourcePoint" />
            <mxPoint x="558.0699999999999" y="282" as="targetPoint" />
          </mxGeometry>
        </mxCell>
        <mxCell id="kJ2lCD65fJCAoveF82Tu-49" value="" style="rounded=0;orthogonalLoop=1;jettySize=auto;html=1;endArrow=halfCircle;endFill=0;endSize=6;strokeWidth=2;sketch=0;fontSize=12;curved=1;strokeColor=#0D0D0D;fontFamily=Verdana;" parent="1" edge="1">
          <mxGeometry relative="1" as="geometry">
            <mxPoint x="759" y="177" as="sourcePoint" />
            <mxPoint x="759" y="280" as="targetPoint" />
          </mxGeometry>
        </mxCell>
        <mxCell id="kJ2lCD65fJCAoveF82Tu-50" value="" style="rounded=0;orthogonalLoop=1;jettySize=auto;html=1;endArrow=oval;endFill=0;sketch=0;sourcePerimeterSpacing=0;targetPerimeterSpacing=0;endSize=10;exitX=0.25;exitY=0;exitDx=0;exitDy=0;strokeColor=#0D0D0D;strokeWidth=2;" parent="1" source="kJ2lCD65fJCAoveF82Tu-26" edge="1">
          <mxGeometry relative="1" as="geometry">
            <mxPoint x="370" y="389" as="sourcePoint" />
            <mxPoint x="558" y="283" as="targetPoint" />
            <Array as="points">
              <mxPoint x="613" y="343" />
              <mxPoint x="558" y="343" />
            </Array>
          </mxGeometry>
        </mxCell>
        <mxCell id="kJ2lCD65fJCAoveF82Tu-51" value="" style="rounded=0;orthogonalLoop=1;jettySize=auto;html=1;endArrow=oval;endFill=0;sketch=0;sourcePerimeterSpacing=0;targetPerimeterSpacing=0;endSize=10;exitX=0.75;exitY=0;exitDx=0;exitDy=0;strokeColor=#0D0D0D;strokeWidth=2;" parent="1" source="kJ2lCD65fJCAoveF82Tu-26" edge="1">
          <mxGeometry relative="1" as="geometry">
            <mxPoint x="623" y="389" as="sourcePoint" />
            <mxPoint x="759" y="280" as="targetPoint" />
            <Array as="points">
              <mxPoint x="703" y="342" />
              <mxPoint x="760" y="342" />
            </Array>
          </mxGeometry>
        </mxCell>
        <mxCell id="kJ2lCD65fJCAoveF82Tu-52" value="" style="rounded=0;orthogonalLoop=1;jettySize=auto;html=1;endArrow=halfCircle;endFill=0;endSize=6;strokeWidth=2;sketch=0;fontSize=12;curved=1;exitX=0.5;exitY=1;exitDx=0;exitDy=0;strokeColor=#0D0D0D;fontFamily=Verdana;" parent="1" source="4hjQzBS3B8wGqRVhp3q0-22" edge="1">
          <mxGeometry relative="1" as="geometry">
            <mxPoint x="958.97" y="178" as="sourcePoint" />
            <mxPoint x="958" y="281" as="targetPoint" />
          </mxGeometry>
        </mxCell>
        <mxCell id="kJ2lCD65fJCAoveF82Tu-53" value="" style="rounded=0;orthogonalLoop=1;jettySize=auto;html=1;endArrow=halfCircle;endFill=0;endSize=6;strokeWidth=2;sketch=0;fontSize=12;curved=1;strokeColor=#0D0D0D;exitX=0.519;exitY=0.994;exitDx=0;exitDy=0;exitPerimeter=0;fontFamily=Verdana;" parent="1" source="kJ2lCD65fJCAoveF82Tu-22" edge="1">
          <mxGeometry relative="1" as="geometry">
            <mxPoint x="1159" y="180" as="sourcePoint" />
            <mxPoint x="1158.97" y="279" as="targetPoint" />
          </mxGeometry>
        </mxCell>
        <mxCell id="kJ2lCD65fJCAoveF82Tu-54" value="" style="rounded=0;orthogonalLoop=1;jettySize=auto;html=1;endArrow=oval;endFill=0;sketch=0;sourcePerimeterSpacing=0;targetPerimeterSpacing=0;endSize=10;exitX=0.25;exitY=0;exitDx=0;exitDy=0;strokeColor=#0D0D0D;strokeWidth=2;" parent="1" edge="1">
          <mxGeometry relative="1" as="geometry">
            <mxPoint x="1012.97" y="378" as="sourcePoint" />
            <mxPoint x="957.97" y="282" as="targetPoint" />
            <Array as="points">
              <mxPoint x="1012.97" y="342" />
              <mxPoint x="957.97" y="342" />
            </Array>
          </mxGeometry>
        </mxCell>
        <mxCell id="kJ2lCD65fJCAoveF82Tu-55" value="" style="rounded=0;orthogonalLoop=1;jettySize=auto;html=1;endArrow=oval;endFill=0;sketch=0;sourcePerimeterSpacing=0;targetPerimeterSpacing=0;endSize=10;exitX=0.75;exitY=0;exitDx=0;exitDy=0;strokeColor=#0D0D0D;strokeWidth=2;" parent="1" edge="1">
          <mxGeometry relative="1" as="geometry">
            <mxPoint x="1102.97" y="378" as="sourcePoint" />
            <mxPoint x="1158.97" y="279" as="targetPoint" />
            <Array as="points">
              <mxPoint x="1102.97" y="341" />
              <mxPoint x="1159.97" y="341" />
            </Array>
          </mxGeometry>
        </mxCell>
        <mxCell id="kJ2lCD65fJCAoveF82Tu-59" value="" style="rounded=0;orthogonalLoop=1;jettySize=auto;html=1;endArrow=oval;endFill=0;sketch=0;sourcePerimeterSpacing=0;targetPerimeterSpacing=0;endSize=10;exitX=0.25;exitY=0;exitDx=0;exitDy=0;strokeColor=#0D0D0D;fontFamily=Verdana;strokeWidth=2;" parent="1" edge="1">
          <mxGeometry relative="1" as="geometry">
            <mxPoint x="216" y="687" as="sourcePoint" />
            <mxPoint x="161" y="584" as="targetPoint" />
            <Array as="points">
              <mxPoint x="216" y="651" />
              <mxPoint x="161" y="651" />
            </Array>
          </mxGeometry>
        </mxCell>
        <mxCell id="kJ2lCD65fJCAoveF82Tu-60" value="" style="rounded=0;orthogonalLoop=1;jettySize=auto;html=1;endArrow=oval;endFill=0;sketch=0;sourcePerimeterSpacing=0;targetPerimeterSpacing=0;endSize=10;exitX=0.75;exitY=0;exitDx=0;exitDy=0;strokeColor=#0D0D0D;fontFamily=Verdana;strokeWidth=2;" parent="1" edge="1">
          <mxGeometry relative="1" as="geometry">
            <mxPoint x="304" y="687" as="sourcePoint" />
            <mxPoint x="360" y="578" as="targetPoint" />
            <Array as="points">
              <mxPoint x="304" y="650" />
              <mxPoint x="361" y="650" />
            </Array>
          </mxGeometry>
        </mxCell>
        <mxCell id="kJ2lCD65fJCAoveF82Tu-62" value="" style="rounded=0;orthogonalLoop=1;jettySize=auto;html=1;endArrow=oval;endFill=0;sketch=0;sourcePerimeterSpacing=0;targetPerimeterSpacing=0;endSize=10;exitX=0.25;exitY=0;exitDx=0;exitDy=0;strokeColor=#0D0D0D;fontFamily=Verdana;strokeWidth=2;" parent="1" edge="1">
          <mxGeometry relative="1" as="geometry">
            <mxPoint x="617" y="687" as="sourcePoint" />
            <mxPoint x="489" y="577" as="targetPoint" />
            <Array as="points">
              <mxPoint x="617" y="651" />
              <mxPoint x="489" y="651" />
            </Array>
          </mxGeometry>
        </mxCell>
        <mxCell id="kJ2lCD65fJCAoveF82Tu-64" value="" style="rounded=0;orthogonalLoop=1;jettySize=auto;html=1;endArrow=oval;endFill=0;sketch=0;sourcePerimeterSpacing=0;targetPerimeterSpacing=0;endSize=10;exitX=0.5;exitY=0;exitDx=0;exitDy=0;strokeColor=#0D0D0D;fontFamily=Verdana;strokeWidth=2;" parent="1" edge="1">
          <mxGeometry relative="1" as="geometry">
            <mxPoint x="657.76" y="687" as="sourcePoint" />
            <mxPoint x="657.76" y="584" as="targetPoint" />
          </mxGeometry>
        </mxCell>
        <mxCell id="kJ2lCD65fJCAoveF82Tu-65" value="" style="rounded=0;orthogonalLoop=1;jettySize=auto;html=1;endArrow=halfCircle;endFill=0;endSize=6;strokeWidth=2;sketch=0;fontSize=12;curved=1;strokeColor=#0D0D0D;exitX=0.5;exitY=1;exitDx=0;exitDy=0;fontFamily=Verdana;" parent="1" source="kJ2lCD65fJCAoveF82Tu-26" edge="1">
          <mxGeometry relative="1" as="geometry">
            <mxPoint x="660" y="469" as="sourcePoint" />
            <mxPoint x="658" y="582" as="targetPoint" />
          </mxGeometry>
        </mxCell>
        <mxCell id="kJ2lCD65fJCAoveF82Tu-67" value="" style="rounded=0;orthogonalLoop=1;jettySize=auto;html=1;endArrow=halfCircle;endFill=0;endSize=6;strokeWidth=2;sketch=0;fontSize=12;curved=1;strokeColor=#0D0D0D;exitX=0.5;exitY=1;exitDx=0;exitDy=0;fontFamily=Verdana;" parent="1" edge="1">
          <mxGeometry relative="1" as="geometry">
            <mxPoint x="359.58" y="469" as="sourcePoint" />
            <mxPoint x="360" y="576" as="targetPoint" />
          </mxGeometry>
        </mxCell>
        <mxCell id="kJ2lCD65fJCAoveF82Tu-68" value="" style="rounded=0;orthogonalLoop=1;jettySize=auto;html=1;endArrow=halfCircle;endFill=0;endSize=6;strokeWidth=2;sketch=0;fontSize=12;curved=1;strokeColor=#0D0D0D;exitX=0.5;exitY=1;exitDx=0;exitDy=0;fontFamily=Verdana;" parent="1" edge="1">
          <mxGeometry relative="1" as="geometry">
            <mxPoint x="160.49999999999997" y="469" as="sourcePoint" />
            <mxPoint x="161" y="582" as="targetPoint" />
          </mxGeometry>
        </mxCell>
        <mxCell id="kJ2lCD65fJCAoveF82Tu-69" value="" style="rounded=0;orthogonalLoop=1;jettySize=auto;html=1;endArrow=halfCircle;endFill=0;endSize=6;strokeWidth=2;sketch=0;fontSize=12;strokeColor=#0D0D0D;exitX=0.75;exitY=1;exitDx=0;exitDy=0;fontFamily=Verdana;" parent="1" source="O_cc4rlv1EW-NWDAQmC--3" edge="1">
          <mxGeometry relative="1" as="geometry">
            <mxPoint x="389" y="490" as="sourcePoint" />
            <mxPoint x="489" y="576" as="targetPoint" />
            <Array as="points">
              <mxPoint x="405" y="554" />
              <mxPoint x="489" y="554" />
            </Array>
          </mxGeometry>
        </mxCell>
        <mxCell id="kJ2lCD65fJCAoveF82Tu-73" value="" style="rounded=0;orthogonalLoop=1;jettySize=auto;html=1;endArrow=oval;endFill=0;sketch=0;sourcePerimeterSpacing=0;targetPerimeterSpacing=0;endSize=10;exitX=0.5;exitY=0;exitDx=0;exitDy=0;strokeColor=#0D0D0D;fontFamily=Verdana;strokeWidth=2;" parent="1" edge="1">
          <mxGeometry relative="1" as="geometry">
            <mxPoint x="856.58" y="687" as="sourcePoint" />
            <mxPoint x="856.58" y="584" as="targetPoint" />
          </mxGeometry>
        </mxCell>
        <mxCell id="kJ2lCD65fJCAoveF82Tu-74" value="" style="rounded=0;orthogonalLoop=1;jettySize=auto;html=1;endArrow=halfCircle;endFill=0;endSize=6;strokeWidth=2;sketch=0;fontSize=12;strokeColor=#0D0D0D;exitX=0.798;exitY=1.006;exitDx=0;exitDy=0;exitPerimeter=0;fontFamily=Verdana;" parent="1" source="kJ2lCD65fJCAoveF82Tu-26" edge="1">
          <mxGeometry relative="1" as="geometry">
            <mxPoint x="710" y="469" as="sourcePoint" />
            <mxPoint x="857" y="583" as="targetPoint" />
            <Array as="points">
              <mxPoint x="711" y="553" />
              <mxPoint x="857" y="553" />
            </Array>
          </mxGeometry>
        </mxCell>
        <mxCell id="kJ2lCD65fJCAoveF82Tu-75" value="" style="rounded=0;orthogonalLoop=1;jettySize=auto;html=1;endArrow=halfCircle;endFill=0;endSize=6;strokeWidth=2;sketch=0;fontSize=12;curved=1;exitX=0;exitY=0.5;exitDx=0;exitDy=0;strokeColor=#0D0D0D;fontFamily=Verdana;" parent="1" source="kJ2lCD65fJCAoveF82Tu-24" edge="1">
          <mxGeometry relative="1" as="geometry">
            <mxPoint x="893.4100000000001" y="398" as="sourcePoint" />
            <mxPoint x="868" y="424" as="targetPoint" />
          </mxGeometry>
        </mxCell>
        <mxCell id="kJ2lCD65fJCAoveF82Tu-76" value="" style="rounded=0;orthogonalLoop=1;jettySize=auto;html=1;endArrow=oval;endFill=0;sketch=0;sourcePerimeterSpacing=0;targetPerimeterSpacing=0;endSize=10;exitX=1;exitY=0.5;exitDx=0;exitDy=0;strokeColor=#0D0D0D;fontFamily=Verdana;strokeWidth=2;" parent="1" source="kJ2lCD65fJCAoveF82Tu-26" edge="1">
          <mxGeometry relative="1" as="geometry">
            <mxPoint x="794" y="469" as="sourcePoint" />
            <mxPoint x="866" y="424" as="targetPoint" />
          </mxGeometry>
        </mxCell>
      </root>
    </mxGraphModel>
  </diagram>
</mxfile>
